<svg width="373" height="266" viewBox="0 0 373 266" fill="none" xmlns="http://www.w3.org/2000/svg">
<path opacity="0.55" d="M311.143 124.034C311.146 130.805 310.598 137.566 309.502 144.248C309.413 144.8 309.318 145.352 309.219 145.904C302.109 185.83 275.872 219.152 240.307 236.074C240.136 236.156 239.962 236.238 239.788 236.319C238.4 236.974 236.995 237.603 235.575 238.207C235.193 238.367 234.814 238.528 234.429 238.684C226.739 241.865 218.746 244.259 210.572 245.83C210.21 245.901 209.849 245.966 209.487 246.031C202.087 247.385 194.58 248.067 187.057 248.069H186.712C186.043 248.069 185.375 248.062 184.71 248.045C184.583 248.045 184.457 248.045 184.331 248.038C176.83 247.887 169.358 247.059 162.006 245.564C161.648 245.489 161.29 245.414 160.931 245.336C154.32 243.93 147.837 241.981 141.547 239.509C141.162 239.362 140.783 239.209 140.401 239.052C138.982 238.483 137.577 237.886 136.188 237.26C136.014 237.182 135.84 237.103 135.669 237.025C99.0673 220.42 71.9561 186.593 64.71 145.904C64.6111 145.352 64.5156 144.8 64.4269 144.248C62.2436 130.891 62.239 117.268 64.4132 103.909C64.5361 103.143 64.6691 102.373 64.8124 101.609C65.7887 96.2516 67.1221 90.965 68.8038 85.7847C68.9744 85.2566 69.1484 84.7284 69.3258 84.2002C85.9398 35.2407 132.333 0 186.965 0C247.88 0 298.551 43.8141 309.117 101.609C309.26 102.373 309.393 103.143 309.516 103.909C310.602 110.563 311.146 117.293 311.143 124.034V124.034Z" fill="url(#paint0_linear)"/>
<g filter="url(#filter0_d)">
<path fill-rule="evenodd" clip-rule="evenodd" d="M367.982 247.407C367.983 247.382 367.983 247.357 367.984 247.331C368.063 244.828 367.847 242.324 367.341 239.861C366.417 234.907 364.206 230.223 360.891 226.194C360.368 225.582 359.823 224.99 359.235 224.418C357.044 222.246 354.4 220.489 351.456 219.247C349.653 218.5 347.742 217.991 345.779 217.737C344.568 217.571 343.343 217.498 342.118 217.52C339.837 217.546 337.57 217.862 335.385 218.458C332.258 219.281 329.326 220.619 326.734 222.405C325.123 223.507 323.67 224.786 322.409 226.214C320.531 228.304 319.158 230.728 318.377 233.329C310.533 212.339 293.449 194.567 272.159 183.771C267.746 181.522 263.149 179.582 258.409 177.969C257.824 177.771 257.134 177.521 256.368 177.243C252.707 175.918 247.309 173.963 243.363 174.012C242.624 173.964 241.882 174.06 241.188 174.296C240.494 174.531 239.865 174.898 239.342 175.374C238.602 176.487 238.197 177.756 238.166 179.055C238.1 179.617 238.046 180.219 238.013 180.851C237.85 183.466 237.937 186.584 238.035 189.426H134.507C134.518 188.321 134.518 187.225 134.518 186.13C134.538 184.36 134.37 182.592 134.017 180.851C134.016 180.817 134.008 180.783 133.995 180.752C133.243 177.466 131.652 175.64 129.168 174.851C126.009 173.844 121.4 174.486 115.211 175.887C109.841 177.124 104.667 178.978 99.8159 181.403C94.225 184.179 89.0263 187.559 84.3336 191.468C74.8872 199.294 67.3694 208.708 60.5706 218.576C57.2258 223.421 54.0552 228.375 50.9065 233.299C50.1002 232.549 49.2967 231.799 48.4931 231.049C47.6896 230.299 46.8861 229.549 46.0798 228.799C45.8728 228.612 45.6766 228.424 45.4805 228.237L41.8197 224.832L34.2147 217.737C32.5695 216.208 30.6409 214.56 28.3638 214.313C28.0921 214.291 27.8192 214.285 27.5466 214.293C27.2637 214.304 26.9828 214.341 26.7077 214.402L26.5442 214.431H26.5334C24.2562 214.984 22.5348 216.938 21.1075 218.744C18.133 222.513 15.1259 226.362 12.4783 230.358C8.57774 236.249 5.4617 242.456 4.40485 249.216C290.521 249.216 365.138 248.055 367.982 247.407Z" fill="white"/>
<path d="M134.507 189.426H135.007C135.007 189.428 135.007 189.429 135.007 189.431L134.507 189.426ZM134.507 189.426C134.509 189.259 134.51 189.092 134.511 188.926H134.507V189.426ZM238.035 189.426C238.029 189.26 238.023 189.093 238.018 188.926H238.035V189.426ZM238.035 189.426H237.534C237.535 189.432 237.535 189.437 237.535 189.443L238.035 189.426ZM318.092 232.578C318.024 232.779 317.96 232.981 317.898 233.185L318.377 233.329L318.846 233.154C318.773 232.958 318.699 232.763 318.624 232.568C319.432 230.255 320.715 228.099 322.409 226.214C323.67 224.786 325.123 223.507 326.734 222.405C329.326 220.619 332.258 219.281 335.385 218.458C337.57 217.862 339.837 217.546 342.118 217.52C343.343 217.498 344.568 217.571 345.779 217.737L318.092 232.578ZM318.092 232.578C310.124 211.916 293.194 194.438 272.159 183.771L318.092 232.578ZM41.4786 225.198L41.4792 225.198L43.3096 226.901L45.135 228.598L45.1363 228.599C45.1367 228.6 45.137 228.6 45.1374 228.6C45.1374 228.6 45.1375 228.6 45.1375 228.6C45.3314 228.786 45.5306 228.976 45.7416 229.167C46.5467 229.916 47.3492 230.665 48.152 231.415L48.1565 231.419C48.9585 232.167 49.7608 232.916 50.5659 233.665L51.0048 234.073L51.3277 233.568C54.4771 228.643 57.643 223.697 60.9821 218.86L60.9824 218.86C67.769 209.009 75.2566 199.637 84.6525 191.854L84.6536 191.853C89.3158 187.969 94.4816 184.61 100.038 181.851L100.039 181.85C104.855 179.443 109.99 177.603 115.322 176.374C118.41 175.675 121.083 175.171 123.37 174.964C125.661 174.757 127.527 174.853 129.016 175.327L129.017 175.327C130.177 175.696 131.111 176.3 131.846 177.185C132.585 178.074 133.144 179.274 133.507 180.863L133.518 180.907L133.518 180.91L133.527 180.95C133.873 182.657 134.038 184.389 134.018 186.124V186.13C134.018 187.226 134.018 188.319 134.007 189.421L134.002 189.926H134.507H238.035H238.552L238.534 189.409C238.436 186.564 238.35 183.469 238.512 180.882L238.512 180.876C238.544 180.257 238.598 179.666 238.662 179.112L238.665 179.089L238.665 179.067C238.694 177.885 239.057 176.727 239.724 175.703C240.185 175.295 240.738 174.976 241.349 174.769C241.98 174.555 242.656 174.467 243.33 174.511L243.349 174.512L243.369 174.512C245.269 174.488 247.55 174.949 249.837 175.594C252.117 176.236 254.365 177.05 256.197 177.714L256.2 177.715C256.964 177.991 257.658 178.243 258.248 178.442C262.966 180.048 267.541 181.978 271.932 184.217L271.933 184.217C293.127 194.965 310.114 212.648 317.909 233.504L318.429 234.895L318.856 233.472C319.615 230.945 320.951 228.586 322.781 226.548L322.783 226.545C324.017 225.149 325.439 223.897 327.017 222.817L327.018 222.816C329.561 221.065 332.44 219.75 335.512 218.941L335.517 218.94C337.66 218.355 339.885 218.046 342.124 218.02L342.127 218.02C343.327 217.999 344.526 218.07 345.711 218.233L345.715 218.233C347.634 218.482 349.502 218.979 351.263 219.708C354.15 220.926 356.74 222.648 358.883 224.773L358.887 224.776C359.461 225.335 359.994 225.914 360.508 226.515C363.769 230.48 365.942 235.086 366.85 239.953L366.852 239.962C367.326 242.272 367.541 244.619 367.493 246.968C367.274 246.988 366.963 247.011 366.545 247.035C365.778 247.079 364.696 247.124 363.262 247.171C360.395 247.265 356.132 247.363 350.2 247.463C338.337 247.663 319.804 247.869 292.417 248.055C237.72 248.425 147.71 248.715 4.99438 248.716C6.11863 242.279 9.12578 236.327 12.8951 230.634C15.5297 226.658 18.5246 222.824 21.4997 219.054C22.9274 217.247 24.5404 215.449 26.6083 214.928L26.6333 214.923L26.7967 214.894L26.8063 214.892L26.8159 214.89C27.0612 214.836 27.312 214.803 27.5646 214.793C27.8155 214.785 28.0668 214.791 28.3169 214.811C30.4033 215.04 32.2157 216.561 33.8738 218.103C33.8739 218.103 33.8739 218.103 33.8739 218.103C33.874 218.103 33.8741 218.103 33.8742 218.103L41.4786 225.198ZM133.535 180.949C133.535 180.949 133.535 180.949 133.535 180.948L133.535 180.949ZM367.576 247.462C367.572 247.441 367.569 247.418 367.568 247.394L367.967 247.407L367.967 247.41C367.886 247.427 367.757 247.445 367.576 247.462Z" stroke="black"/>
</g>
<path d="M250.605 103.729C242.395 75.8304 216.849 53.2715 186.588 53.2715C156.328 53.2715 130.782 75.8304 122.572 103.729C118.967 103.729 115.511 105.104 112.962 107.553C110.414 110.002 108.982 113.324 108.982 116.787V132.667H120.608C125.614 163.012 153.245 183.124 186.588 183.124C219.931 183.124 247.563 163.012 252.569 132.667H264.546V117.125C264.546 115.365 264.185 113.623 263.485 111.998C262.784 110.373 261.757 108.896 260.463 107.652C259.168 106.408 257.631 105.422 255.94 104.748C254.249 104.075 252.436 103.729 250.605 103.729Z" fill="white"/>
<path d="M186.202 174.962C216.056 174.962 240.257 151.707 240.257 123.021C240.257 94.3347 216.056 71.0798 186.202 71.0798C156.349 71.0798 132.148 94.3347 132.148 123.021C132.148 151.707 156.349 174.962 186.202 174.962Z" fill="#D991FB" fill-opacity="0.83"/>
<path opacity="0.5" d="M193.026 82.5544C201.394 82.5483 209.649 84.4122 217.139 87.999C224.628 91.5858 231.147 96.7971 236.18 103.221C233.253 96.3986 228.848 90.2535 223.256 85.1954C217.664 80.1372 211.015 76.2819 203.751 73.8865C196.487 71.491 188.776 70.6103 181.13 71.3029C173.484 71.9956 166.08 74.2458 159.41 77.9036C152.74 81.5614 146.958 86.5428 142.448 92.5161C137.939 98.4894 134.806 105.317 133.258 112.545C131.709 119.773 131.782 127.235 133.47 134.434C135.158 141.633 138.423 148.404 143.048 154.295C139.665 146.405 138.357 137.834 139.239 129.342C140.122 120.85 143.168 112.698 148.109 105.606C153.049 98.5143 159.732 92.7011 167.566 88.6806C175.4 84.66 184.144 82.556 193.026 82.5544V82.5544Z" fill="#AB518D"/>
<path d="M9.47456 51.8669C12.4981 51.8669 14.9491 49.5117 14.9491 46.6064C14.9491 43.701 12.4981 41.3458 9.47456 41.3458C6.45105 41.3458 4 43.701 4 46.6064C4 49.5117 6.45105 51.8669 9.47456 51.8669Z" fill="url(#paint1_linear)"/>
<path opacity="0.5" d="M183.916 149.223C201.363 149.223 215.506 146.88 215.506 143.989C215.506 141.099 201.363 138.756 183.916 138.756C166.47 138.756 152.327 141.099 152.327 143.989C152.327 146.88 166.47 149.223 183.916 149.223Z" fill="#AB518D"/>
<defs>
<filter id="filter0_d" x="0.404846" y="174" width="371.663" height="83.216" filterUnits="userSpaceOnUse" color-interpolation-filters="sRGB">
<feFlood flood-opacity="0" result="BackgroundImageFix"/>
<feColorMatrix in="SourceAlpha" type="matrix" values="0 0 0 0 0 0 0 0 0 0 0 0 0 0 0 0 0 0 127 0"/>
<feOffset dy="4"/>
<feGaussianBlur stdDeviation="2"/>
<feColorMatrix type="matrix" values="0 0 0 0 0 0 0 0 0 0 0 0 0 0 0 0 0 0 0.25 0"/>
<feBlend mode="normal" in2="BackgroundImageFix" result="effect1_dropShadow"/>
<feBlend mode="normal" in="SourceGraphic" in2="effect1_dropShadow" result="shape"/>
</filter>
<linearGradient id="paint0_linear" x1="238" y1="-8" x2="109.5" y2="197.5" gradientUnits="userSpaceOnUse">
<stop offset="0.0412595" stop-color="#FB08E3"/>
<stop offset="1" stop-opacity="0.92"/>
</linearGradient>
<linearGradient id="paint1_linear" x1="1318.53" y1="3434.48" x2="1318.53" y2="3328.73" gradientUnits="userSpaceOnUse">
<stop stop-color="#808080" stop-opacity="0.25"/>
<stop offset="0.53514" stop-color="#808080" stop-opacity="0.12"/>
<stop offset="1" stop-color="#808080" stop-opacity="0.1"/>
</linearGradient>
</defs>
</svg>
