<svg width="926" height="749" viewBox="0 0 926 749" fill="none" xmlns="http://www.w3.org/2000/svg">
<g id="undraw_to_the_moon_v1mv 1">
<g clip-path="url(#clip0)">
<path id="RocketFlame" d="M292.14 694.016L277.577 749C254.535 596 262.194 746.112 256.641 740.97C253.341 709.555 242 685.748 242 678.477L247.969 596H278.411H308.853L319 670.109C313.031 674.815 305.733 735.828 300.181 740.97C294.628 746.112 299.992 694.016 292.14 694.016Z" fill="url(#paint0_linear)"/>
<g id="Stars">
<path id="Vector" d="M138 297C141.866 297 145 293.866 145 290C145 286.134 141.866 283 138 283C134.134 283 131 286.134 131 290C131 293.866 134.134 297 138 297Z" fill="#F2F2F2"/>
<path id="Vector_2" d="M47.85 515.35C49.424 515.35 50.7 514.074 50.7 512.5C50.7 510.926 49.424 509.65 47.85 509.65C46.276 509.65 45 510.926 45 512.5C45 514.074 46.276 515.35 47.85 515.35Z" fill="white"/>
<path id="Vector_3" d="M115.85 384.35C117.424 384.35 118.7 383.074 118.7 381.5C118.7 379.926 117.424 378.65 115.85 378.65C114.276 378.65 113 379.926 113 381.5C113 383.074 114.276 384.35 115.85 384.35Z" fill="white"/>
<path id="Vector_4" d="M391.5 426C393.985 426 396 423.985 396 421.5C396 419.015 393.985 417 391.5 417C389.015 417 387 419.015 387 421.5C387 423.985 389.015 426 391.5 426Z" fill="#F2F2F2"/>
<path id="Vector_5" d="M410 346C413.866 346 417 342.866 417 339C417 335.134 413.866 332 410 332C406.134 332 403 335.134 403 339C403 342.866 406.134 346 410 346Z" fill="#F2F2F2"/>
<path id="Vector_6" d="M505 483.322H503.178V481.5H502.822V483.322H501V483.678H502.822V485.5H503.178V483.678H505V483.322Z" fill="#F2F2F2"/>
<path id="Vector_7" d="M452.91 368.43C453.926 368.43 454.75 367.606 454.75 366.59C454.75 365.574 453.926 364.75 452.91 364.75C451.894 364.75 451.07 365.574 451.07 366.59C451.07 367.606 451.894 368.43 452.91 368.43Z" fill="white"/>
<path id="Vector_8" d="M447 536.322H445.178V534.5H444.822V536.322H443V536.678H444.822V538.5H445.178V536.678H447V536.322Z" fill="#F2F2F2"/>
<path id="Vector_9" d="M389.85 281.35C391.424 281.35 392.7 280.074 392.7 278.5C392.7 276.926 391.424 275.65 389.85 275.65C388.276 275.65 387 276.926 387 278.5C387 280.074 388.276 281.35 389.85 281.35Z" fill="white"/>
<path id="Vector_10" d="M96 368.322H94.178V366.5H93.822V368.322H92V368.678H93.822V370.5H94.178V368.678H96V368.322Z" fill="#F2F2F2"/>
<path id="Vector_11" d="M481 352.322H479.178V350.5H478.822V352.322H477V352.678H478.822V354.5H479.178V352.678H481V352.322Z" fill="#F2F2F2"/>
</g>
<g id="Rocket">
<path id="Vector_12" d="M358.958 295.194C358.958 574.238 323.869 574.238 280.598 574.238C258.227 574.238 238.045 574.239 223.773 535.693C219.669 524.615 216.044 510.33 213.006 491.943C206.163 450.61 202.239 388.496 202.239 295.194C202.239 259.317 206.486 224.144 213.006 191.293C216.14 175.478 219.801 160.212 223.773 145.653C228.63 127.828 233.953 111.067 239.325 95.7302C242.926 85.4179 246.563 75.7396 250.092 66.803C266.398 25.5535 280.598 -3.05176e-05 280.598 -3.05176e-05C280.598 -3.05176e-05 358.958 141.083 358.958 295.194Z" fill="url(#paint1_linear)"/>
<path id="Vector_13" d="M372.716 547.919C363.14 524.348 350.844 520.281 342.807 520.634V516.815H217.193V520.634C209.156 520.281 196.86 524.348 187.284 547.919C171.732 586.202 196.855 652 196.855 652C196.855 652 183.429 560.233 228.013 559.629C231.874 564.666 236.613 568.964 242 572.319V597H314V574.566C321.038 570.996 327.185 565.892 331.987 559.629C376.571 560.233 363.145 652 363.145 652C363.145 652 388.268 586.202 372.716 547.919Z" fill="url(#paint2_linear)"/>
</g>
<g id="Window">
<path id="Vector_14" d="M278.205 235.677C301.991 235.677 321.273 216.395 321.273 192.609C321.273 168.823 301.991 149.541 278.205 149.541C254.42 149.541 235.138 168.823 235.138 192.609C235.138 216.395 254.42 235.677 278.205 235.677Z" fill="#3F3D56"/>
<path id="Vector_15" d="M278.206 226.106C296.706 226.106 311.703 211.109 311.703 192.609C311.703 174.109 296.706 159.112 278.206 159.112C259.705 159.112 244.708 174.109 244.708 192.609C244.708 211.109 259.705 226.106 278.206 226.106Z" fill="url(#paint3_linear)"/>
</g>
</g>
</g>
<defs>
<linearGradient id="paint0_linear" x1="284.393" y1="600.781" x2="284.393" y2="753.781" gradientUnits="userSpaceOnUse">
<stop stop-color="#E0E0E0"/>
<stop offset="0.31" stop-color="#FCCC63"/>
<stop offset="0.77" stop-color="#F55F44"/>
</linearGradient>
<linearGradient id="paint1_linear" x1="597.5" y1="280" x2="9.49999" y2="287" gradientUnits="userSpaceOnUse">
<stop offset="0.545624" stop-color="#FEF7F7"/>
<stop offset="0.932859" stop-color="#121212" stop-opacity="0.17"/>
</linearGradient>
<linearGradient id="paint2_linear" x1="280" y1="516.815" x2="280" y2="652" gradientUnits="userSpaceOnUse">
<stop stop-color="#302A92"/>
<stop offset="0.333294" stop-color="#7068F8"/>
<stop offset="1" stop-color="#F8D4B2" stop-opacity="0.64"/>
</linearGradient>
<linearGradient id="paint3_linear" x1="278.206" y1="159.112" x2="278.206" y2="226.106" gradientUnits="userSpaceOnUse">
<stop stop-color="#6C63FF" stop-opacity="0"/>
<stop offset="1" stop-color="#6C63FF"/>
</linearGradient>
<clipPath id="clip0">
<rect width="926" height="749" fill="white"/>
</clipPath>
</defs>
</svg>
